<?xml version="1.0" encoding="iso-8859-1"?>
<!-- Uploaded to: SVG Repo, www.svgrepo.com, Generator: SVG Repo Mixer Tools -->
<svg fill="#000000" height="800px" width="800px" version="1.1" id="Layer_1" xmlns="http://www.w3.org/2000/svg" xmlns:xlink="http://www.w3.org/1999/xlink" 
	 viewBox="0 0 512 512" xml:space="preserve">
<g>
	<g>
		<path d="M435.745,147.064H283.833c-4.513,0-8.17,3.658-8.17,8.17s3.657,8.17,8.17,8.17h151.911c4.513,0,8.17-3.658,8.17-8.17
			S440.258,147.064,435.745,147.064z"/>
	</g>
</g>
<g>
	<g>
		<path d="M495.775,212.426h-19.179v-81.702h2.723c4.513,0,8.17-3.658,8.17-8.17c0-4.512-3.657-8.17-8.17-8.17h-13.929
			c-3.979-52.066-45.665-93.752-97.731-97.731V8.17c0-4.512-3.657-8.17-8.17-8.17s-8.17,3.658-8.17,8.17v8.482
			c-52.066,3.979-93.752,45.665-97.731,97.731H239.66c-4.513,0-8.17,3.658-8.17,8.17c0,4.512,3.657,8.17,8.17,8.17h2.723v81.702
			H185.17c3.575-4.753,6.141-10.306,7.371-16.34h3.545c4.513,0,8.17-3.658,8.17-8.17s-3.657-8.17-8.17-8.17H185.17
			c3.575-4.753,6.141-10.306,7.371-16.34h3.545c4.513,0,8.17-3.658,8.17-8.17s-3.657-8.17-8.17-8.17H185.17
			c3.575-4.753,6.141-10.306,7.371-16.34h3.545c4.513,0,8.17-3.658,8.17-8.17c0-4.512-3.657-8.17-8.17-8.17H185.17
			c3.575-4.753,6.141-10.306,7.371-16.34h3.545c4.513,0,8.17-3.658,8.17-8.17c0-4.512-3.657-8.17-8.17-8.17H32.681
			c-4.513,0-8.17,3.658-8.17,8.17c0,4.512,3.657,8.17,8.17,8.17h3.546c1.23,6.034,3.794,11.588,7.371,16.34H32.681
			c-4.513,0-8.17,3.658-8.17,8.17c0,4.512,3.657,8.17,8.17,8.17h3.546c1.23,6.034,3.794,11.588,7.371,16.34H32.681
			c-4.513,0-8.17,3.658-8.17,8.17s3.657,8.17,8.17,8.17h3.546c1.23,6.034,3.794,11.588,7.371,16.34H32.681
			c-4.513,0-8.17,3.658-8.17,8.17s3.657,8.17,8.17,8.17h3.546c1.23,6.034,3.794,11.588,7.371,16.34H16.225
			c-4.513,0-8.17,3.658-8.17,8.17v65.362c0,4.512,3.657,8.17,8.17,8.17h403.269c4.513,0,8.17-3.658,8.17-8.17s-3.657-8.17-8.17-8.17
			H24.395v-49.021h463.211v49.021h-35.431c-4.513,0-8.17,3.658-8.17,8.17s3.657,8.17,8.17,8.17h32.59v168.48
			c-12.302-1.192-19.384-5.099-27.371-9.506c-10.119-5.582-21.587-11.91-43.435-11.91c-21.848,0-33.317,6.328-43.435,11.91
			c-9.606,5.3-17.903,9.877-35.543,9.877c-17.64,0-25.938-4.577-35.544-9.877c-10.119-5.582-21.587-11.91-43.437-11.91
			s-33.318,6.328-43.437,11.91c-9.606,5.3-17.904,9.877-35.544,9.877c-17.639,0-25.937-4.577-35.542-9.877
			c-10.118-5.582-21.586-11.91-43.434-11.91c-21.848,0-33.317,6.328-43.435,11.91c-2.276,1.255-4.479,2.466-6.75,3.589
			c-5.705,2.821-11.829,5.064-20.623,5.916V318.638c0-4.512-3.657-8.17-8.17-8.17c-4.513,0-8.17,3.658-8.17,8.17v152.511
			c0,4.512,3.657,8.17,8.17,8.17c10.095,0,17.957-1.359,24.511-3.363v27.873c0,4.512,3.657,8.17,8.17,8.17
			c4.513,0,8.17-3.658,8.17-8.17v-35.004c0.873-0.475,1.736-0.948,2.585-1.416c9.606-5.3,17.903-9.877,35.542-9.877
			c17.639,0,25.936,4.578,35.54,9.876c10.118,5.583,21.586,11.911,43.435,11.911c21.85,0,33.318-6.328,43.437-11.91
			c9.606-5.3,17.904-9.877,35.544-9.877s25.938,4.578,35.544,9.877c10.119,5.583,21.587,11.91,43.437,11.91
			c21.849,0,33.318-6.328,43.436-11.91c9.606-5.3,17.903-9.877,35.542-9.877s25.936,4.578,35.54,9.876
			c0.849,0.468,1.711,0.941,2.584,1.416v35.006c0,4.512,3.657,8.17,8.17,8.17s8.17-3.658,8.17-8.17v-27.875
			c6.554,2.004,14.415,3.364,24.511,3.364c4.513,0,8.17-3.658,8.17-8.17V292.143c1.737-1.498,2.841-3.71,2.841-6.185v-65.362
			C503.945,216.084,500.288,212.426,495.775,212.426z M152.511,212.426H76.255c-10.651,0-19.733-6.831-23.105-16.34h122.466
			C172.243,205.594,163.161,212.426,152.511,212.426z M152.511,179.745H76.255c-10.651,0-19.733-6.831-23.105-16.34h122.466
			C172.243,172.913,163.161,179.745,152.511,179.745z M152.511,147.064H76.255c-10.651,0-19.733-6.831-23.105-16.34h122.466
			C172.243,140.232,163.161,147.064,152.511,147.064z M152.511,114.383H76.255c-10.651,0-19.733-6.831-23.105-16.34h122.466
			C172.243,107.552,163.161,114.383,152.511,114.383z M359.489,32.681c46.8,0,85.341,35.963,89.484,81.702H270.005
			C274.149,68.644,312.689,32.681,359.489,32.681z M460.255,212.426H258.723v-81.702h201.532V212.426z"/>
	</g>
</g>
<g>
	<g>
		<circle cx="446.638" cy="373.106" r="8.17"/>
	</g>
</g>
<g>
	<g>
		<circle cx="413.957" cy="405.787" r="8.17"/>
	</g>
</g>
</svg>