<?xml version="1.0" encoding="iso-8859-1"?>
<!-- Uploaded to: SVG Repo, www.svgrepo.com, Generator: SVG Repo Mixer Tools -->
<svg fill="#000000" height="800px" width="800px" version="1.1" id="Layer_1" xmlns="http://www.w3.org/2000/svg" xmlns:xlink="http://www.w3.org/1999/xlink" 
	 viewBox="0 0 512.003 512.003" xml:space="preserve">
<g>
	<g>
		<g>
			<path d="M6.982,38.591c5.537,2.043,11.095,4.009,16.669,5.913l18.504,80.788c0.882,3.851,3.821,6.9,7.638,7.924
				c0.913,0.244,1.841,0.364,2.761,0.364c2.924,0,5.768-1.204,7.815-3.405l56.401-60.689c9.518,1.879,19.071,3.571,28.659,5.06
				l32.235,76.306c1.537,3.64,4.961,6.131,8.898,6.476c0.313,0.027,0.623,0.041,0.932,0.041c3.596,0,6.979-1.819,8.955-4.873
				l45.022-69.59c4.828,0.096,9.66,0.152,14.496,0.152c4.861,0,9.715-0.055,14.564-0.153l45.021,69.588
				c1.977,3.055,5.359,4.873,8.956,4.873c0.309,0,0.621-0.014,0.931-0.041c3.937-0.345,7.36-2.837,8.899-6.476l32.237-76.312
				c9.588-1.49,19.14-3.185,28.66-5.063l56.393,60.687c2.046,2.201,4.891,3.405,7.816,3.405c0.919,0,1.847-0.118,2.761-0.364
				c3.816-1.022,6.755-4.07,7.638-7.922l18.509-80.794c5.574-1.904,11.134-3.871,16.672-5.914c5.528-2.04,8.356-8.174,6.316-13.702
				c-2.04-5.528-8.176-8.356-13.702-6.316c-6.996,2.581-14.023,5.043-21.076,7.395c-0.428,0.113-0.847,0.254-1.256,0.419
				c-25.535,8.459-51.437,15.404-77.63,20.839c-0.606,0.071-1.207,0.196-1.796,0.372c-12.42,2.543-24.906,4.743-37.447,6.602
				c-0.611,0.039-1.213,0.13-1.803,0.271c-26.483,3.854-53.216,6.174-80.119,6.958c-0.394-0.011-0.787,0-1.181,0.032
				c-6.446,0.177-12.9,0.276-19.366,0.276c-6.443,0-12.877-0.099-19.302-0.274c-0.392-0.033-0.784-0.043-1.176-0.032
				c-26.892-0.781-53.614-3.096-80.084-6.944c-0.613-0.148-1.239-0.243-1.874-0.282c-12.527-1.856-25-4.053-37.405-6.592
				c-0.594-0.178-1.197-0.303-1.807-0.374C88.13,41.787,62.232,34.845,36.705,26.391c-0.416-0.169-0.841-0.312-1.275-0.426
				c-7.05-2.35-14.073-4.81-21.064-7.389C8.838,16.533,2.704,19.361,0.665,24.89C-1.373,30.417,1.454,36.551,6.982,38.591z
				 M464.717,52.102l-11.173,48.769l-34.039-36.632C434.682,60.692,449.757,56.643,464.717,52.102z M341.982,77.913l-19.459,46.067
				L295.35,81.981C310.962,81.131,326.511,79.773,341.982,77.913z M216.652,81.984l-27.174,42.001l-19.459-46.064
				C185.493,79.778,201.041,81.136,216.652,81.984z M92.498,64.257l-34.042,36.632L47.285,52.122
				C62.245,56.664,77.32,60.71,92.498,64.257z"/>
			<path d="M452.906,275.124l10.979-33.986c1.812-5.606-1.264-11.62-6.872-13.432c-5.608-1.812-11.62,1.266-13.432,6.872
				l-10.979,33.985c-1.812,5.606,1.264,11.62,6.872,13.432c1.089,0.352,2.195,0.52,3.282,0.52
				C447.259,282.516,451.447,279.64,452.906,275.124z"/>
			<path d="M429.989,311.311c1.095,0.356,2.205,0.525,3.298,0.525c4.498,0,8.681-2.868,10.146-7.375l0.244-0.755
				c1.82-5.604-1.247-11.623-6.85-13.443c-5.601-1.823-11.623,1.247-13.443,6.85l-0.244,0.755
				C421.318,303.472,424.385,309.491,429.989,311.311z"/>
			<path d="M442.17,209.389c5.691-1.526,9.068-7.375,7.543-13.066c-1.526-5.692-7.374-9.071-13.067-7.544
				c-58.903,15.784-119.692,23.787-180.678,23.787c-60.984,0-121.772-8.003-180.675-23.787c-5.693-1.526-11.541,1.852-13.067,7.544
				c-1.526,5.691,1.852,11.54,7.544,13.066c4.686,1.256,9.386,2.446,14.094,3.606l25.489,78.912
				c1.215,3.761,4.408,6.542,8.299,7.227c0.619,0.11,1.239,0.162,1.854,0.162c3.255,0,6.375-1.493,8.416-4.115l50.951-65.447
				c9.613,1.036,19.247,1.894,28.898,2.542l38.802,73.278c1.848,3.492,5.476,5.677,9.429,5.677c3.951,0,7.579-2.184,9.428-5.676
				l38.804-73.283c9.652-0.649,19.284-1.507,28.899-2.545l50.947,65.442c2.042,2.623,5.161,4.115,8.419,4.115
				c0.615,0,1.234-0.053,1.852-0.162c3.893-0.686,7.086-3.466,8.299-7.226l25.495-78.916
				C432.828,211.824,437.506,210.639,442.17,209.389z M123.462,266.175l-15.395-47.663c15.3,3.214,30.697,5.927,46.165,8.137
				L123.462,266.175z M256.001,277.765l-23.428-44.245c7.793,0.254,15.593,0.382,23.395,0.382c7.824,0,15.646-0.128,23.461-0.383
				L256.001,277.765z M388.538,266.163l-30.769-39.523c15.469-2.211,30.867-4.926,46.166-8.141L388.538,266.163z"/>
			<path d="M511.34,317.911c-2.04-5.53-8.174-8.352-13.703-6.316c-6.985,2.577-14,5.037-21.046,7.386
				c-0.448,0.117-0.887,0.265-1.314,0.438c-25.531,8.457-51.432,15.402-77.623,20.834c-0.591,0.071-1.176,0.193-1.752,0.364
				c-12.422,2.544-24.911,4.744-37.455,6.604c-0.619,0.038-1.23,0.131-1.83,0.275c-26.477,3.851-53.206,6.171-80.106,6.956
				c-0.392-0.012-0.785-0.001-1.178,0.032c-6.447,0.177-12.903,0.276-19.368,0.276c-6.445,0-12.881-0.099-19.31-0.275
				c-0.385-0.031-0.773-0.042-1.159-0.031c-26.91-0.782-53.649-3.099-80.137-6.952c-0.585-0.14-1.181-0.229-1.786-0.268
				c-12.546-1.858-25.037-4.058-37.461-6.602c-0.586-0.174-1.179-0.297-1.782-0.369c-26.195-5.432-52.101-12.376-77.635-20.831
				c-0.412-0.166-0.833-0.308-1.265-0.424c-7.051-2.35-14.075-4.812-21.068-7.391c-5.528-2.038-11.663,0.788-13.702,6.317
				c-2.039,5.528,0.788,11.663,6.317,13.702c5.537,2.043,11.095,4.009,16.669,5.913l18.505,80.789
				c0.882,3.851,3.822,6.9,7.638,7.924c0.913,0.244,1.841,0.364,2.761,0.364c2.924,0,5.768-1.204,7.815-3.405l56.403-60.691
				c9.517,1.879,19.069,3.571,28.656,5.06l32.237,76.307c1.537,3.64,4.961,6.131,8.898,6.476c0.313,0.027,0.623,0.041,0.932,0.041
				c3.596,0,6.979-1.819,8.955-4.873l45.024-69.592c4.825,0.096,9.658,0.151,14.494,0.151c4.861,0,9.715-0.055,14.564-0.153
				l45.021,69.59c1.977,3.055,5.359,4.873,8.956,4.873c0.308,0,0.621-0.014,0.931-0.041c3.937-0.345,7.36-2.837,8.899-6.476
				l32.237-76.313c9.587-1.49,19.139-3.183,28.658-5.062l56.395,60.688c2.046,2.201,4.89,3.405,7.816,3.405
				c0.919,0,1.847-0.118,2.761-0.364c3.816-1.022,6.755-4.07,7.638-7.922l18.509-80.795c5.575-1.903,11.134-3.871,16.672-5.915
				C510.552,329.574,513.38,323.439,511.34,317.911z M58.456,393.935l-11.171-48.767c14.961,4.542,30.036,8.588,45.214,12.134
				L58.456,393.935z M189.478,417.034l-19.459-46.066c15.472,1.856,31.022,3.214,46.633,4.063L189.478,417.034z M322.523,417.029
				l-27.174-42.002c15.612-0.85,31.162-2.208,46.634-4.067L322.523,417.029z M453.544,393.919l-34.04-36.632
				c15.178-3.547,30.253-7.596,45.213-12.139L453.544,393.919z"/>
			<path d="M165.522,478.556c-2.294-5.426-8.557-7.967-13.981-5.67c-5.427,2.294-7.966,8.554-5.671,13.981l0.308,0.73
				c1.721,4.07,5.674,6.516,9.831,6.516c1.386,0,2.794-0.272,4.151-0.846c5.427-2.294,7.966-8.554,5.671-13.98L165.522,478.556z"/>
			<path d="M153.843,450.908l-13.9-32.903c-2.292-5.428-8.552-7.967-13.98-5.676c-5.427,2.293-7.968,8.553-5.675,13.979
				l13.901,32.903c1.719,4.072,5.671,6.52,9.831,6.52c1.385,0,2.792-0.272,4.148-0.844
				C153.595,462.596,156.137,456.336,153.843,450.908z"/>
		</g>
	</g>
</g>
</svg>