<?xml version="1.0" encoding="iso-8859-1"?>
<!-- Uploaded to: SVG Repo, www.svgrepo.com, Generator: SVG Repo Mixer Tools -->
<svg fill="#000000" height="800px" width="800px" version="1.1" id="Layer_1" xmlns="http://www.w3.org/2000/svg" xmlns:xlink="http://www.w3.org/1999/xlink" 
	 viewBox="0 0 512.002 512.002" xml:space="preserve">
<g>
	<g>
		<path d="M433.949,330.799c-18.434,0-33.43,14.997-33.43,33.43c0,18.434,14.997,33.43,33.43,33.43
			c18.434,0,33.43-14.997,33.43-33.43C467.379,345.795,452.382,330.799,433.949,330.799z M433.949,376.765
			c-6.913,0-12.536-5.624-12.536-12.536s5.624-12.536,12.536-12.536s12.536,5.624,12.536,12.536S440.861,376.765,433.949,376.765z"
			/>
	</g>
</g>
<g>
	<g>
		<path d="M10.584,490.985h-0.137C4.677,490.985,0,495.662,0,501.432s4.677,10.447,10.447,10.447h0.137
			c5.77,0,10.447-4.677,10.447-10.447S16.354,490.985,10.584,490.985z"/>
	</g>
</g>
<g>
	<g>
		<path d="M501.455,490.985h-0.137c-5.77,0-10.447,4.677-10.447,10.447s4.677,10.447,10.447,10.447h0.137
			c5.77,0,10.447-4.677,10.447-10.447S507.225,490.985,501.455,490.985z"/>
	</g>
</g>
<g>
	<g>
		<path d="M294.05,212.051c-6.44,0-11.678,5.238-11.678,11.678c0,6.438,5.238,11.677,11.678,11.677s11.678-5.238,11.678-11.677
			C305.728,217.289,300.49,212.051,294.05,212.051z"/>
	</g>
</g>
<g>
	<g>
		<path d="M217.852,212.051c-6.44,0-11.678,5.238-11.678,11.678c0,6.438,5.238,11.677,11.678,11.677
			c6.438,0,11.677-5.238,11.678-11.677C229.529,217.289,224.291,212.051,217.852,212.051z"/>
	</g>
</g>
<g>
	<g>
		<path d="M266.204,261.272h-20.418c-5.77,0-10.447,4.677-10.447,10.447c0,11.389,9.266,20.656,20.656,20.656
			s20.655-9.265,20.656-20.656C276.651,265.949,271.973,261.272,266.204,261.272z"/>
	</g>
</g>
<g>
	<g>
		<path d="M55.42,273.922c-30.53,0-55.369,24.839-55.369,55.369c0,20.664,11.386,38.708,28.207,48.22v78.999
			c0,14.977,12.185,27.162,27.162,27.162c14.977,0,27.162-12.185,27.162-27.162v-78.999c16.821-9.512,28.207-27.556,28.207-48.22
			C110.789,298.761,85.95,273.922,55.42,273.922z M61.688,456.51c0,3.397-2.871,6.268-6.268,6.268s-6.268-2.871-6.268-6.268v-72.215
			c2.059,0.233,4.147,0.365,6.268,0.365s4.209-0.132,6.268-0.365V456.51z M55.42,363.766c-15.369,0-28.417-10.111-32.853-24.028
			h65.705C83.837,353.656,70.789,363.766,55.42,363.766z M22.568,318.844c4.436-13.917,17.484-24.028,32.853-24.028
			s28.417,10.111,32.853,24.028H22.568z"/>
	</g>
</g>
<g>
	<g>
		<path d="M511.49,46.147c-1.399-4.304-5.409-7.219-9.936-7.219h-33.212L458.079,7.342c-1.399-4.304-5.409-7.219-9.936-7.219
			c-4.526,0-8.537,2.915-9.936,7.219l-10.263,31.586h-33.212c-4.527,0-8.537,2.915-9.936,7.219
			c-1.398,4.305,0.134,9.021,3.795,11.681l26.869,19.521l-10.263,31.586c-1.398,4.304,0.134,9.02,3.795,11.681
			c1.831,1.33,3.985,1.995,6.141,1.995c2.154,0,4.309-0.665,6.141-1.995l26.87-19.521l26.869,19.521c3.662,2.66,8.62,2.66,12.281,0
			c3.662-2.661,5.193-7.377,3.795-11.681l-10.263-31.586l26.87-19.521C511.357,55.167,512.888,50.452,511.49,46.147z
			 M462.403,64.906c-3.662,2.661-5.193,7.376-3.795,11.681l2.673,8.227l-6.997-5.085c-3.663-2.661-8.62-2.66-12.281,0l-6.998,5.085
			l2.673-8.227c1.398-4.304-0.134-9.021-3.795-11.681l-6.997-5.083h8.649c4.526,0,8.537-2.915,9.936-7.219l2.673-8.227l2.672,8.227
			c1.399,4.304,5.41,7.219,9.936,7.219h8.649L462.403,64.906z"/>
	</g>
</g>
<g>
	<g>
		<path d="M289.682,446.064h-0.137c-5.77,0-10.447,4.677-10.447,10.447c0,5.77,4.677,10.447,10.447,10.447h0.137
			c5.77,0,10.447-4.677,10.447-10.447C300.129,450.741,295.452,446.064,289.682,446.064z"/>
	</g>
</g>
<g>
	<g>
		<path d="M362.673,446.063h-39.194c-5.77,0-10.447,4.677-10.447,10.447s4.677,10.447,10.447,10.447h39.194
			c5.77,0,10.447-4.677,10.447-10.447S368.443,446.063,362.673,446.063z"/>
	</g>
</g>
<g>
	<g>
		<path d="M67.1,76.659h-5.219V71.44c0-5.77-4.677-10.447-10.447-10.447c-5.77,0-10.447,4.677-10.447,10.447v5.219h-5.22
			c-5.77,0-10.447,4.677-10.447,10.447c0,5.77,4.677,10.447,10.447,10.447h5.22v5.22c0,5.77,4.677,10.447,10.447,10.447
			c5.77,0,10.447-4.677,10.447-10.447v-5.22H67.1c5.77,0,10.447-4.677,10.447-10.447C77.547,81.336,72.87,76.659,67.1,76.659z"/>
	</g>
</g>
<g>
	<g>
		<path d="M433.949,442.233c43.011,0,78.004-34.993,78.004-78.004s-34.992-78.004-78.004-78.004
			c-42.745,0-77.553,34.563-77.985,77.206l-43.524-18.135c-2.081-0.867-3.52-2.737-3.857-4.915c-0.005-0.05-0.01-0.1-0.016-0.15
			c-0.037-0.276-0.063-0.554-0.063-0.838v-16.268l27.307-15.658c0.19-0.109,0.377-0.225,0.561-0.346
			c13.673-9.029,22.652-25.088,24.018-42.957c0.021-0.264,0.03-0.531,0.03-0.796v-5.294h10.374
			c18.374,0,33.322-14.949,33.322-33.322v-41.353c0-14.426-9.216-26.737-22.068-31.363c-4.383-65.784-59.25-117.964-126.075-117.964
			c-66.774,0-121.609,52.101-126.066,117.813c-13.084,4.5-22.516,16.922-22.516,31.513v41.354c0,18.374,14.949,33.323,33.323,33.323
			h10.768v5.294c0,0.265,0.01,0.532,0.03,0.796c1.372,17.942,10.287,34,23.849,42.957c0.187,0.123,0.378,0.24,0.573,0.352
			l27.464,15.701v16.218c0,2.59-1.545,4.907-3.935,5.904l-67.236,28.015c-17.596,7.333-29.885,26.674-29.885,47.036v70.637H44.433
			c-5.77,0-10.447,4.677-10.447,10.447c0,5.77,4.677,10.447,10.447,10.447h423.138c5.77,0,10.447-4.677,10.447-10.447
			c0-5.77-4.677-10.447-10.447-10.447h-58.01v-52.636C417.373,440.928,425.537,442.233,433.949,442.233z M383.222,183.398v41.354
			c0,6.853-5.576,12.428-12.428,12.428h-10.374v-66.212h10.374C377.647,170.969,383.222,176.545,383.222,183.398z M151.481,237.181
			h-10.768c-6.853,0-12.429-5.576-12.429-12.429v-41.354c0-6.853,5.576-12.428,12.429-12.428h10.768V237.181z M153.509,150.075
			h-2.493c5.262-53.319,50.323-95.11,104.957-95.11c54.634,0,99.693,41.791,104.957,95.11h-2.168
			c-8.789-48.669-51.463-85.705-102.627-85.705S162.298,101.406,153.509,150.075z M335.517,143.137
			c-15.096-3.605-28.46-12.797-37.264-26.065c-2.164-3.26-5.966-5.035-9.858-4.607c-3.889,0.432-7.211,3.001-8.607,6.658
			c-10.644,27.881-37.842,46.614-67.678,46.614c-13.647,0-26.744-3.757-38.201-10.902c6.608-39.424,40.953-69.57,82.225-69.57
			C293.217,85.264,324.71,109.601,335.517,143.137z M186.62,289.514c-7.985-5.404-13.283-15.289-14.244-26.566v-85.19
			c12.339,5.832,25.815,8.871,39.736,8.871c19.279,0,37.784-5.834,53.516-16.87c10.644-7.468,19.505-16.93,26.162-27.85
			c12.88,12.694,29.592,20.835,47.647,23.133c0.051,1.199,0.092,2.402,0.092,3.614v94.29c-0.949,11.048-6.442,21.172-14.417,26.572
			l-56.09,32.161c-0.191,0.11-0.377,0.225-0.561,0.346c-7.83,5.173-17.182,5.173-25.015,0c-0.187-0.123-0.377-0.241-0.573-0.352
			L186.62,289.514z M287.61,335.105v19.09c0,17.536-14.139,31.803-31.675,31.803s-31.803-14.266-31.803-31.803l0.158-19.076
			l7.938,4.538c7.333,4.763,15.528,7.144,23.723,7.144c8.198,0,16.394-2.383,23.728-7.148L287.61,335.105z M123.235,490.985v-70.637
			c0-11.775,7.32-23.705,17.028-27.75l64.282-26.784c5.307,23.484,26.326,41.08,51.391,41.08c25.069,0,46.09-17.601,51.393-41.09
			l64.309,26.795c9.707,4.045,17.028,15.974,17.028,27.75v70.636H123.235z M409.345,415.76
			c-1.679-18.626-13.402-35.671-29.67-42.449l-2.281-0.95c-0.011-0.103-0.013-0.205-0.026-0.308c-0.351-2.575-0.53-5.208-0.53-7.824
			c0-31.49,25.619-57.11,57.11-57.11c31.49,0,57.11,25.619,57.11,57.11s-25.619,57.11-57.11,57.11
			C425.31,421.34,417.044,419.448,409.345,415.76z"/>
	</g>
</g>
</svg>